HIERARCHY
ROOT Hips
{
	OFFSET 0.000000 0.000000 0.000000
	CHANNELS 6 Xposition Yposition Zposition Zrotation Yrotation Xrotation 
	JOINT LHipJoint
	{
		OFFSET 0.000000 0.000000 0.000000
		CHANNELS 3 Zrotation Yrotation Xrotation
		JOINT LeftUpLeg
		{
			OFFSET 1.363060 -1.794630 0.839290
			CHANNELS 3 Zrotation Yrotation Xrotation
			JOINT LeftLeg
			{
				OFFSET 2.448110 -6.726130 0.000000
				CHANNELS 3 Zrotation Yrotation Xrotation
				JOINT LeftFoot
				{
					OFFSET 2.562200 -7.039590 0.000000
					CHANNELS 3 Zrotation Yrotation Xrotation
					JOINT LeftToeBase
					{
						OFFSET 0.157640 -0.433110 2.322550
						CHANNELS 3 Zrotation Yrotation Xrotation
						End Site
						{
							OFFSET 0.000000 0.000000 0.000000
						}
					}
				}
			}
		}
	}
	JOINT RHipJoint
	{
		OFFSET 0.000000 0.000000 0.000000
		CHANNELS 3 Zrotation Yrotation Xrotation
		JOINT RightUpLeg
		{
			OFFSET -1.305520 -1.794630 0.839290
			CHANNELS 3 Zrotation Yrotation Xrotation
			JOINT RightLeg
			{
				OFFSET -2.542530 -6.985550 0.000000
				CHANNELS 3 Zrotation Yrotation Xrotation
				JOINT RightFoot
				{
					OFFSET -2.568260 -7.056230 0.000000
					CHANNELS 3 Zrotation Yrotation Xrotation
					JOINT RightToeBase
					{
						OFFSET -0.164730 -0.452590 2.363150
						CHANNELS 3 Zrotation Yrotation Xrotation
						End Site
						{
							OFFSET 0.000000 0.000000 0.000000
						}
					}
				}
			}
		}
	}
}
MOTION
Frames: 31
Frame Time: 0.008333
5.072532 17.351155 1.403572 -176.042648 -61.550897 -174.208462 -12.412456 3.833950 -1.420591 -8.895019 33.819455 -13.572283 -3.435394 -0.981872 -2.433194 1.198567 8.929539 -1.784009 0.841399 -0.000000 -26.471800 8.408492 -1.425589 5.202890 3.965921 7.762314 -12.749418 3.564070 2.007383 -2.351077 1.362345 6.714173 5.491943 0.756100 -0.000001 -37.279500
5.067895 17.345329 1.398540 -176.277828 -61.258217 -174.173499 -12.420212 3.840498 -1.492925 -8.794419 33.940399 -13.358989 -3.430058 -0.952345 -2.115596 1.228984 9.132096 -2.025266 0.816100 -0.000001 -26.463400 8.404581 -1.410462 5.197783 3.853294 7.984651 -12.583141 3.538377 1.981220 -2.154874 1.355989 6.762939 5.280842 0.754499 -0.000000 -37.234300
5.064050 17.339290 1.391771 -176.528659 -60.950718 -174.096594 -12.421177 3.839425 -1.572916 -8.719996 34.065334 -13.198642 -3.429030 -0.921380 -1.747147 1.261374 9.344466 -2.283996 0.787299 0.000000 -26.456600 8.404089 -1.392999 5.190894 3.735965 8.198146 -12.482582 3.511797 1.949043 -1.904234 1.353036 6.856678 5.043219 0.761400 -0.000000 -37.218900
5.060539 17.333282 1.383560 -176.779426 -60.633823 -173.985700 -12.416361 3.830871 -1.656394 -8.673237 34.197340 -13.098428 -3.432630 -0.890611 -1.343501 1.294269 9.557256 -2.550588 0.755700 -0.000000 -26.453900 8.405690 -1.375421 5.186263 3.619508 8.401867 -12.456506 3.485590 1.911612 -1.600724 1.353491 6.991792 4.784018 0.775600 0.000000 -37.222100
5.057014 17.327588 1.374285 -177.016890 -60.310158 -173.850004 -12.407183 3.815815 -1.739417 -8.654104 34.341221 -13.063320 -3.441038 -0.861022 -0.918867 1.326343 9.762066 -2.815586 0.722300 -0.000001 -26.455100 8.407758 -1.359472 5.188128 3.508830 8.598075 -12.508307 3.461107 1.870198 -1.251444 1.357314 7.161979 4.512580 0.795500 0.000000 -37.231600
5.052961 17.322528 1.364190 -177.230453 -59.982372 -173.694239 -12.395102 3.795493 -1.815918 -8.663649 34.487417 -13.092628 -3.452453 -0.834170 -0.494972 1.358139 9.964030 -3.068733 0.689600 0.000000 -26.456000 8.408574 -1.346556 5.200085 3.407607 8.789430 -12.638237 3.439544 1.826586 -0.868724 1.364211 7.358007 4.239599 0.819301 0.000000 -37.228400
5.048071 17.318413 1.353544 -177.411539 -59.655446 -173.525735 -12.381364 3.770837 -1.882715 -8.700150 34.632844 -13.183654 -3.465872 -0.810940 -0.086155 1.389415 10.162428 -3.302662 0.659200 0.000000 -26.452301 8.406759 -1.338129 5.224694 3.318995 8.980163 -12.838734 3.421702 1.782486 -0.469907 1.373587 7.567820 3.978474 0.845100 0.000000 -37.201001
5.042126 17.315458 1.342587 -177.554394 -59.338513 -173.349713 -12.366619 3.742186 -1.934913 -8.760257 34.754113 -13.321833 -3.477367 -0.793139 0.284160 1.422358 10.373930 -3.509453 0.634500 0.000000 -26.436300 8.401699 -1.335039 5.262041 3.245080 9.171602 -13.097178 3.407873 1.739577 -0.075160 1.384512 7.778296 3.740195 0.871100 0.000000 -37.136100
5.035208 17.313663 1.331488 -177.655930 -59.040803 -173.175841 -12.350903 3.709394 -1.976288 -8.837076 34.864169 -13.503427 -3.488482 -0.780027 0.619636 1.454361 10.579722 -3.690201 0.613800 0.000000 -26.407400 8.393548 -1.337623 5.311187 3.187335 9.366563 -13.393228 3.397871 1.699296 0.294977 1.395710 7.975110 3.532598 0.895600 -0.000000 -37.033299
5.027292 17.312907 1.320472 -177.711476 -58.776127 -173.012007 -12.334044 3.672390 -2.006524 -8.922550 34.950979 -13.712874 -3.497280 -0.772065 0.912937 1.485825 10.782413 -3.845151 0.597800 0.000000 -26.362700 8.382918 -1.345970 5.369554 3.146930 9.563542 -13.705979 3.391320 1.662956 0.621951 1.405809 8.144920 3.360196 0.916800 -0.000000 -36.885400
5.018945 17.313090 1.309826 -177.725029 -58.558964 -172.868159 -12.315245 3.630986 -2.025058 -9.004960 34.989700 -13.919475 -3.499357 -0.770048 1.149564 1.519007 10.998425 -3.972748 0.588300 -0.000000 -26.297100 8.371981 -1.358872 5.430819 3.123871 9.754727 -14.009181 3.387095 1.630764 0.893009 1.413658 8.279424 3.224499 0.933900 0.000000 -36.698200
5.010558 17.313890 1.299700 -177.698431 -58.400884 -172.753338 -12.294091 3.585486 -2.035990 -9.073819 34.987145 -14.111278 -3.495664 -0.772677 1.338987 1.551872 11.212412 -4.078976 0.583000 -0.000000 -26.213799 8.362195 -1.375316 5.490767 3.118327 9.935849 -14.280150 3.384338 1.603315 1.099104 1.417954 8.369741 3.121821 0.945400 0.000001 -36.477600
5.002675 17.315024 1.290312 -177.636491 -58.311676 -172.675684 -12.270460 3.536695 -2.041268 -9.119237 34.939238 -14.270362 -3.485409 -0.779015 1.484342 1.583978 11.420928 -4.167167 0.581000 0.000000 -26.115100 8.355218 -1.393826 5.544160 3.129193 10.099719 -14.498080 3.381973 1.580657 1.237156 1.417686 8.410516 3.047444 0.950200 -0.000000 -36.234400
4.995792 17.316222 1.281746 -177.546577 -58.297336 -172.639481 -12.244468 3.485793 -2.042928 -9.134782 34.849259 -14.387595 -3.469246 -0.787671 1.594285 1.614055 11.614570 -4.241978 0.580900 0.000000 -26.005600 8.352105 -1.412989 5.587444 3.155278 10.241290 -14.649769 3.379096 1.562767 1.309312 1.412048 8.398177 2.994521 0.947100 -0.000000 -35.975700
4.990442 17.317284 1.274104 -177.436114 -58.359540 -172.648116 -12.216674 3.434236 -2.042304 -9.115271 34.718330 -14.452590 -3.447339 -0.797501 1.673053 1.641386 11.788654 -4.305198 0.581699 0.000000 -25.891400 8.353705 -1.431258 5.616919 3.195262 10.354729 -14.725509 3.374976 1.549295 1.321682 1.400723 8.333408 2.956680 0.935600 -0.000000 -35.715199
4.986859 17.318035 1.267359 -177.310648 -58.496457 -172.701092 -12.187728 3.383594 -2.040054 -9.060244 34.552704 -14.464702 -3.420972 -0.807461 1.727593 1.664817 11.935371 -4.359112 0.582400 0.000000 -25.779800 8.360210 -1.447838 5.631328 3.247395 10.436691 -14.724461 3.369213 1.539925 1.283541 1.383699 8.218894 2.926991 0.915700 -0.000000 -35.460700
4.985187 17.318383 1.261356 -177.177621 -58.702206 -172.793876 -12.158245 3.335482 -2.036110 -8.973064 34.358954 -14.427335 -3.391546 -0.816804 1.762350 1.683443 12.049185 -4.403684 0.582600 -0.000000 -25.678000 8.371518 -1.462141 5.630664 3.309504 10.484897 -14.652437 3.361588 1.534119 1.206504 1.361435 8.060571 2.899981 0.887600 0.000001 -35.221400
4.985360 17.318320 1.255907 -177.041719 -58.968322 -172.919811 -12.129001 3.291404 -2.029624 -8.860374 34.145444 -14.349216 -3.360766 -0.825124 1.780771 1.696440 12.125151 -4.438080 0.582300 0.000000 -25.593500 8.386883 -1.474158 5.616820 3.379227 10.498881 -14.521323 3.352266 1.531429 1.102492 1.334734 7.866484 2.870955 0.852600 0.000000 -35.003499
4.987211 17.317887 1.250721 -176.909707 -59.284181 -173.068512 -12.100658 3.252421 -2.019518 -8.731163 33.921114 -14.242970 -3.330400 -0.832269 1.785026 1.703226 12.160031 -4.460649 0.581500 0.000000 -25.532100 8.405266 -1.484075 5.592650 3.454087 10.479128 -14.347800 3.341510 1.531221 0.984020 1.304684 7.646256 2.836956 0.812100 0.000000 -34.811800
4.990305 17.317180 1.245518 -176.784474 -59.639119 -173.228485 -12.073928 3.219161 -2.004459 -8.595611 33.694855 -14.123526 -3.302148 -0.838544 1.776276 1.703427 12.152044 -4.469202 0.580800 -0.000000 -25.497700 8.425294 -1.492831 5.562093 3.531915 10.427384 -14.151136 3.329876 1.533016 0.861531 1.272530 7.410354 2.796170 0.767901 0.000000 -34.647200
4.994303 17.316328 1.240069 -176.669503 -60.023296 -173.388390 -12.049224 3.191536 -1.983383 -8.463836 33.474707 -14.006006 -3.277431 -0.844567 1.754806 1.696912 12.100991 -4.461868 0.580600 0.000001 -25.492900 8.445730 -1.501653 5.529238 3.610498 10.346053 -13.951134 3.317863 1.536245 0.743709 1.239470 7.168566 2.748215 0.721900 0.000000 -34.508200
4.998708 17.315480 1.234142 -176.566286 -60.428119 -173.537825 -12.026900 3.169163 -1.954957 -8.344506 33.266779 -13.904352 -3.257286 -0.851184 1.720658 1.683817 12.008483 -4.436901 0.581500 0.000000 -25.517000 8.465333 -1.512229 5.498324 3.688796 10.238147 -13.765834 3.306089 1.540481 0.636912 1.206633 6.929799 2.693610 0.676100 0.000000 -34.391801
5.003133 17.314785 1.227636 -176.474847 -60.846872 -173.669609 -12.007176 3.151374 -1.917983 -8.244305 33.076001 -13.829945 -3.242397 -0.859333 1.673960 1.664474 11.877099 -4.394095 0.583700 0.000000 -25.568100 8.483110 -1.526374 5.473070 3.765972 10.106037 -13.609307 3.295104 1.545435 0.544892 1.174892 6.700910 2.633182 0.631700 0.000000 -34.294701
5.007147 17.314302 1.220507 -176.393337 -61.274709 -173.779494 -11.990252 3.137545 -1.871344 -8.166982 32.904010 -13.789423 -3.232872 -0.869824 1.614749 1.639449 11.710919 -4.333284 0.587300 -0.000001 -25.641700 8.498257 -1.545744 5.456470 3.841977 9.952812 -13.490559 3.285407 1.551022 0.468095 1.144838 6.486050 2.569005 0.589900 0.000001 -34.210600
5.010612 17.314132 1.212835 -176.321973 -61.708756 -173.866425 -11.976053 3.126896 -1.814633 -8.113541 32.750245 -13.784428 -3.228329 -0.883217 1.543290 1.609567 11.515414 -4.256157 0.592400 -0.000000 -25.732100 8.510394 -1.571344 5.449907 3.917222 9.780851 -13.412047 3.277254 1.557131 0.405432 1.116751 6.287281 2.502549 0.551000 0.000000 -34.136101
5.013499 17.314254 1.204706 -176.258557 -62.148579 -173.933717 -11.964404 3.118543 -1.747892 -8.081933 32.613165 -13.813848 -3.228195 -0.899720 1.461769 1.575499 11.294679 -4.165360 0.598300 -0.000000 -25.834500 8.519360 -1.603830 5.453801 3.992840 9.592163 -13.371616 3.270800 1.563808 0.353861 1.090501 6.103497 2.434862 0.514900 0.000001 -34.064300
5.015648 17.314623 1.196343 -176.197827 -62.594685 -173.986404 -11.955274 3.112099 -1.671518 -8.068458 32.488927 -13.873119 -3.231680 -0.919176 1.372979 1.538043 11.053207 -4.064263 0.604500 -0.000000 -25.943000 8.525071 -1.643307 5.467516 4.070093 9.389493 -13.362269 3.266086 1.571327 0.308767 1.065635 5.930783 2.367317 0.481100 0.000000 -33.990200
5.017412 17.315187 1.187913 -176.142581 -63.046701 -174.030343 -11.948230 3.107090 -1.587443 -8.066776 32.368865 -13.946523 -3.236814 -0.941304 1.273314 1.498704 10.801308 -3.954171 0.611200 0.000000 -26.050100 8.528535 -1.688146 5.487125 4.148529 9.172957 -13.370675 3.262611 1.579480 0.265970 1.041780 5.766972 2.300339 0.449100 -0.000000 -33.915800
5.018887 17.315834 1.179631 -176.086881 -63.507331 -174.073568 -11.943002 3.103289 -1.496781 -8.071376 32.251125 -14.032140 -3.243361 -0.964998 1.171046 1.457690 10.538117 -3.841058 0.617000 0.000000 -26.154300 8.529711 -1.737234 5.511347 4.230180 8.946533 -13.387691 3.260252 1.588789 0.221040 1.017949 5.603790 2.234013 0.417400 0.000000 -33.832599
5.020319 17.316484 1.171636 -176.031777 -63.975861 -174.121139 -11.939273 3.100749 -1.402196 -8.075266 32.126572 -14.111825 -3.249387 -0.989607 1.061597 1.416419 10.273266 -3.725536 0.622500 -0.000000 -26.250900 8.529887 -1.787971 5.535052 4.313656 8.709839 -13.398483 3.258332 1.599060 0.170784 0.993730 5.438975 2.168059 0.385500 0.000000 -33.746600
5.021836 17.317050 1.164044 -175.975050 -64.452889 -174.178375 -11.936695 3.099537 -1.305637 -8.073318 31.990790 -14.178010 -3.254088 -1.014050 0.947128 1.375502 10.009708 -3.610069 0.627300 0.000000 -26.338499 8.529694 -1.838112 5.555247 4.398738 8.465136 -13.393205 3.256392 1.610475 0.112479 0.968424 5.267180 2.102090 0.352600 0.000000 -33.657000
